<svg xmlns="http://www.w3.org/2000/svg" xmlns:xlink="http://www.w3.org/1999/xlink" width="500" zoomAndPan="magnify" viewBox="0 0 375 374.999991" height="500" preserveAspectRatio="xMidYMid meet" version="1.0"><defs><g/><clipPath id="id1"><path d="M 119.308594 140 L 188 140 L 188 200 L 119.308594 200 Z M 119.308594 140 " clip-rule="nonzero"/></clipPath><clipPath id="id2"><path d="M 187 108.519531 L 255.808594 108.519531 L 255.808594 169 L 187 169 Z M 187 108.519531 " clip-rule="nonzero"/></clipPath></defs><g clip-path="url(#id1)"><path fill="#545454" d="M 165.269531 182.492188 L 165.269531 190.777344 L 127.644531 173.351562 L 127.644531 166.628906 L 165.269531 149.203125 L 165.269531 157.488281 L 136.816406 169.910156 L 136.816406 170.066406 Z M 187.617188 140 L 124.691406 140 C 121.722656 140 119.3125 142.402344 119.3125 145.363281 L 119.3125 194.617188 C 119.3125 197.578125 121.722656 199.980469 124.691406 199.980469 L 170.148438 199.980469 L 187.617188 140 " fill-opacity="1" fill-rule="nonzero"/></g><g clip-path="url(#id2)"><path fill="#f3f5f9" d="M 247.488281 142.132812 L 209.863281 159.324219 L 209.863281 151.039062 L 238.945312 138.613281 L 238.945312 138.457031 L 209.863281 126.035156 L 209.863281 117.75 L 247.488281 134.941406 Z M 205.085938 108.546875 L 187.617188 168.527344 L 250.4375 168.527344 C 253.410156 168.527344 255.816406 166.125 255.816406 163.164062 L 255.816406 113.910156 C 255.816406 110.949219 253.410156 108.546875 250.4375 108.546875 L 205.085938 108.546875 " fill-opacity="1" fill-rule="nonzero"/></g><g fill="#ffffff" fill-opacity="1"><g transform="translate(83.92472, 232.784853)"><g><path d="M 12.503906 -17.246094 L 12.503906 -10.320312 L 5.488281 -10.320312 L 5.488281 -17.246094 L 1.695312 -17.246094 L 1.695312 0 L 5.488281 0 L 5.488281 -6.957031 L 12.503906 -6.957031 L 12.503906 0 L 16.269531 0 L 16.269531 -17.246094 Z M 12.503906 -17.246094 "/></g></g></g><g fill="#ffffff" fill-opacity="1"><g transform="translate(102.92812, 232.784853)"><g><path d="M 8.765625 0.230469 C 12.847656 0.230469 15.953125 -2.269531 15.953125 -5.519531 L 15.953125 -17.246094 L 12.160156 -17.246094 L 12.160156 -6.238281 C 12.160156 -4.484375 10.691406 -3.132812 8.765625 -3.132812 C 6.871094 -3.132812 5.402344 -4.484375 5.402344 -6.238281 L 5.402344 -17.246094 L 1.609375 -17.246094 L 1.609375 -5.519531 C 1.609375 -2.269531 4.742188 0.230469 8.765625 0.230469 Z M 8.765625 0.230469 "/></g></g></g><g fill="#ffffff" fill-opacity="1"><g transform="translate(121.500421, 232.784853)"><g><path d="M 9.917969 -9.457031 L 9.917969 -6.496094 L 14.660156 -6.496094 C 13.855469 -4.683594 12.074219 -3.476562 9.945312 -3.476562 C 7.042969 -3.476562 4.800781 -5.71875 4.800781 -8.625 C 4.800781 -11.527344 7.042969 -13.769531 9.945312 -13.769531 C 11.984375 -13.769531 13.652344 -12.675781 14.515625 -11.039062 L 17.792969 -12.734375 C 16.296875 -15.550781 13.335938 -17.476562 9.945312 -17.476562 C 5.03125 -17.476562 1.09375 -13.507812 1.09375 -8.625 C 1.09375 -3.738281 5.03125 0.230469 9.945312 0.230469 C 14.832031 0.230469 18.796875 -3.738281 18.796875 -8.625 L 18.796875 -9.457031 Z M 9.917969 -9.457031 "/></g></g></g><g fill="#ffffff" fill-opacity="1"><g transform="translate(142.400678, 232.784853)"><g><path d="M 9.917969 0.230469 C 14.832031 0.230469 18.769531 -3.738281 18.769531 -8.625 C 18.769531 -13.507812 14.832031 -17.476562 9.917969 -17.476562 C 5.03125 -17.476562 1.0625 -13.507812 1.0625 -8.625 C 1.0625 -3.738281 5.03125 0.230469 9.917969 0.230469 Z M 9.917969 -3.476562 C 7.011719 -3.476562 4.800781 -5.71875 4.800781 -8.625 C 4.800781 -11.527344 7.011719 -13.769531 9.917969 -13.769531 C 12.847656 -13.769531 15.0625 -11.527344 15.0625 -8.625 C 15.0625 -5.71875 12.847656 -3.476562 9.917969 -3.476562 Z M 9.917969 -3.476562 "/></g></g></g><g fill="#ffffff" fill-opacity="1"><g transform="translate(163.272188, 232.784853)"><g/></g></g><g fill="#ffffff" fill-opacity="1"><g transform="translate(171.181858, 232.784853)"><g><path d="M 16.730469 -17.246094 L 11.238281 -5.316406 L 5.804688 -17.246094 L 1.695312 -17.246094 L 1.695312 0 L 5.488281 0 L 5.488281 -10.289062 L 10.148438 0 L 12.332031 0 L 17.015625 -10.261719 L 17.015625 0 L 20.808594 0 L 20.808594 -17.246094 Z M 16.730469 -17.246094 "/></g></g></g><g fill="#ffffff" fill-opacity="1"><g transform="translate(194.697468, 232.784853)"><g><path d="M 1.839844 0 L 5.632812 0 L 5.632812 -17.246094 L 1.839844 -17.246094 Z M 1.839844 0 "/></g></g></g><g fill="#ffffff" fill-opacity="1"><g transform="translate(203.153198, 232.784853)"><g><path d="M 10.691406 -7.101562 C 12.734375 -7.703125 14.171875 -9.601562 14.171875 -11.957031 C 14.171875 -14.890625 11.984375 -17.246094 9.027344 -17.246094 L 1.695312 -17.246094 L 1.695312 0 L 5.488281 0 L 5.488281 -6.667969 L 7.011719 -6.667969 L 11.265625 0 L 15.523438 0 Z M 8.449219 -9.800781 L 5.488281 -9.800781 L 5.488281 -13.882812 L 8.449219 -13.882812 C 9.65625 -13.882812 10.550781 -13.019531 10.550781 -11.84375 C 10.550781 -10.636719 9.65625 -9.800781 8.449219 -9.800781 Z M 8.449219 -9.800781 "/></g></g></g><g fill="#ffffff" fill-opacity="1"><g transform="translate(219.541228, 232.784853)"><g><path d="M 12.246094 0 L 16.296875 0 L 10.089844 -17.246094 L 5.835938 -17.246094 L -0.375 0 L 3.679688 0 L 4.742188 -3.246094 L 11.179688 -3.246094 Z M 5.75 -6.410156 L 7.960938 -13.25 L 10.175781 -6.410156 Z M 5.75 -6.410156 "/></g></g></g><g fill="#ffffff" fill-opacity="1"><g transform="translate(236.475324, 232.784853)"><g><path d="M 14.085938 -17.246094 L 14.085938 -5.835938 L 5.605469 -17.246094 L 1.695312 -17.246094 L 1.695312 0 L 5.488281 0 L 5.488281 -11.441406 L 13.941406 0 L 17.851562 0 L 17.851562 -17.246094 Z M 14.085938 -17.246094 "/></g></g></g><g fill="#ffffff" fill-opacity="1"><g transform="translate(257.059444, 232.784853)"><g><path d="M 1.695312 0 L 7.386719 0 C 12.128906 0 16.011719 -3.851562 16.011719 -8.625 C 16.011719 -13.394531 12.128906 -17.246094 7.386719 -17.246094 L 1.695312 -17.246094 Z M 5.488281 -3.363281 L 5.488281 -13.882812 L 7.359375 -13.882812 C 10.089844 -13.882812 12.214844 -11.613281 12.214844 -8.625 C 12.214844 -5.632812 10.089844 -3.363281 7.359375 -3.363281 Z M 5.488281 -3.363281 "/></g></g></g><g fill="#ffffff" fill-opacity="1"><g transform="translate(275.143145, 232.784853)"><g><path d="M 12.246094 0 L 16.296875 0 L 10.089844 -17.246094 L 5.835938 -17.246094 L -0.375 0 L 3.679688 0 L 4.742188 -3.246094 L 11.179688 -3.246094 Z M 5.75 -6.410156 L 7.960938 -13.25 L 10.175781 -6.410156 Z M 5.75 -6.410156 "/></g></g></g></svg>